<svg xmlns="http://www.w3.org/2000/svg" viewBox="0 0 960 240" role="img" aria-labelledby="title desc">
  <title id="title">EchoTrace logo</title>
  <desc id="desc">EchoTrace wordmark with abstract receiver signal mark.</desc>
  <defs>
    <linearGradient id="word" x1="260" y1="58" x2="890" y2="168" gradientUnits="userSpaceOnUse">
      <stop offset="0" stop-color="#e7edf3"/>
      <stop offset="1" stop-color="#9cc9d9"/>
    </linearGradient>
  </defs>
  <rect width="960" height="240" rx="28" fill="#0d1117"/>
  <g transform="translate(44 18) scale(0.78)">
    <svg viewBox="0 0 256 256" width="256" height="256">
      <defs>
        <linearGradient id="bg" x1="32" y1="20" x2="224" y2="236" gradientUnits="userSpaceOnUse">
          <stop offset="0" stop-color="#122334"/>
          <stop offset="1" stop-color="#081017"/>
        </linearGradient>
        <linearGradient id="signal" x1="58" y1="74" x2="210" y2="188" gradientUnits="userSpaceOnUse">
          <stop offset="0" stop-color="#5eead4"/>
          <stop offset="0.55" stop-color="#38bdf8"/>
          <stop offset="1" stop-color="#f2c14e"/>
        </linearGradient>
      </defs>
      <rect width="256" height="256" rx="48" fill="url(#bg)"/>
      <path d="M64 82h82c24 0 43 19 43 43s-19 43-43 43H94" fill="none" stroke="#1f3444" stroke-width="18" stroke-linecap="round"/>
      <path d="M64 82h82c24 0 43 19 43 43s-19 43-43 43H94" fill="none" stroke="url(#signal)" stroke-width="10" stroke-linecap="round"/>
      <path d="M64 128h86" fill="none" stroke="#5eead4" stroke-width="10" stroke-linecap="round"/>
      <path d="M64 174h70" fill="none" stroke="#38bdf8" stroke-width="10" stroke-linecap="round"/>
      <circle cx="189" cy="125" r="19" fill="#081017" stroke="#f2c14e" stroke-width="8"/>
      <circle cx="64" cy="82" r="8" fill="#5eead4"/>
      <circle cx="64" cy="128" r="8" fill="#5eead4"/>
      <circle cx="64" cy="174" r="8" fill="#38bdf8"/>
      <path d="M204 80c15 12 24 28 24 47s-9 35-24 47" fill="none" stroke="#5eead4" stroke-width="6" stroke-linecap="round" opacity="0.65"/>
    </svg>
  </g>
  <text x="284" y="116" fill="url(#word)" font-family="Segoe UI, Inter, Arial, sans-serif" font-size="68" font-weight="700" letter-spacing="0">EchoTrace</text>
  <text x="288" y="158" fill="#6fa3b6" font-family="Segoe UI, Inter, Arial, sans-serif" font-size="24" font-weight="500" letter-spacing="2">BLE SIGNAL OBSERVATORY</text>
</svg>
